<svg xmlns="http://www.w3.org/2000/svg" viewBox="0 0 64 64"><defs><style>.cls-1{isolation:isolate;}.cls-2{fill:#8e4000;}.cls-3{fill:#e2e2e2;}.cls-4{fill:#e1d3ce;}.cls-5{fill:#f96a00;}.cls-6{fill:#ff9100;}.cls-6,.cls-8,.cls-9{stroke:#000;stroke-linecap:round;stroke-linejoin:round;}.cls-7{fill:#ffe8e1;}.cls-8,.cls-9{fill:none;}.cls-8{stroke-width:2px;}.cls-10{opacity:0.25;mix-blend-mode:multiply;}.cls-11,.cls-12{mix-blend-mode:overlay;}.cls-12{fill:#fff;}</style></defs><title>Icon Color</title><g class="cls-1"><g id="Layer_1" data-name="Layer 1"><g id="Vector"><path class="cls-2" d="M9.93,8.91V55.09a3.9,3.9,0,0,1-7.8,0V8.91a3.9,3.9,0,1,1,7.8,0Z"/><path class="cls-3" d="M23,16a22.82,22.82,0,0,0-4,5.37H9.93V16Z"/><path class="cls-3" d="M23,48h-13V42.65H19A22.82,22.82,0,0,0,23,48Z"/><path class="cls-2" d="M39.11,9.23A22.77,22.77,0,1,0,61.87,32,22.66,22.66,0,0,0,39.11,9.23Zm0,41.79-.82,0-.55,0h-.21L37,50.91l-.88-.12-.48-.08c-.19,0-.38-.08-.55-.12l-.3-.07c-.26-.05-.52-.12-.79-.2s-.64-.18-1-.29-.43-.14-.64-.23-.6-.23-.89-.36l-.11,0a8.86,8.86,0,0,1-.82-.4c-.3-.15-.59-.3-.87-.47s-.58-.33-.85-.51-.43-.28-.65-.44A1.27,1.27,0,0,1,28,47.4c-.24-.17-.46-.34-.68-.52l-.47-.38c-.2-.15-.38-.33-.57-.5a6.11,6.11,0,0,1-.58-.56,18.78,18.78,0,0,1-2.32-2.79c-.34-.52-.67-1-1-1.59a15.11,15.11,0,0,1-.81-1.67A17,17,0,0,1,21,37.66l-.12-.38c-.12-.41-.22-.82-.31-1.24s-.12-.61-.17-.93-.1-.62-.14-.93c0-.15,0-.3-.05-.45a.61.61,0,0,0,0-.14c0-.25,0-.5,0-.75s0-.56,0-.84c0-.58,0-1.16.07-1.73,0-.15,0-.3.05-.45,0-.32.08-.63.14-.93s.11-.62.17-.93.19-.83.31-1.24l.12-.38a18.7,18.7,0,0,1,2.4-5c.29-.43.59-.83.92-1.23l.47-.57,0,0c.17-.19.33-.38.5-.55s.36-.39.55-.57.62-.59,1-.86l.52-.43c.25-.2.51-.39.78-.58a8,8,0,0,1,.8-.54l.56-.35A13,13,0,0,1,30.6,15l.46-.23.37-.17c.13,0,.25-.11.38-.15a9.89,9.89,0,0,1,1.35-.51l.53-.17c.27-.08.55-.17.84-.23l.45-.1c.29-.07.59-.13.89-.18l.47-.07.67-.1.51-.05h.22l.54,0,.83,0a19,19,0,0,1,0,38Z"/><circle class="cls-3" cx="39.1" cy="32" r="19.02" transform="translate(-1.03 62.7) rotate(-76.72)"/><path class="cls-4" d="M49.76,29.41v9.73a3.92,3.92,0,0,1-3.92,3.91h-1.6a3.35,3.35,0,0,0,.26-1.27v-.45h1.34A2.19,2.19,0,0,0,48,39.14V29.41a2.19,2.19,0,0,0-2.19-2.19H44.5V25.49h1.34A3.93,3.93,0,0,1,49.76,29.41Z"/><path class="cls-5" d="M44.5,26.9V41.78a3.35,3.35,0,0,1-.26,1.27,3.31,3.31,0,0,1-3.05,2H31.75a3.29,3.29,0,0,1-3.3-3.29V26.9H39.83V30a.62.62,0,0,0,0,.13,1.18,1.18,0,0,0,.59,1l.11.06.11,0,.05,0,.11,0H41a1.25,1.25,0,0,0,1.29-1.23V26.9Z"/><rect class="cls-6" x="31.02" y="29.39" width="2.43" height="12.36" rx="1.17"/><rect class="cls-6" x="35.26" y="29.39" width="2.43" height="12.36" rx="1.17"/><path class="cls-6" d="M41.92,31v9.57a1.22,1.22,0,0,1-2.43,0V30.61a1.26,1.26,0,0,1,.34-.85V30a.62.62,0,0,0,0,.13,1.18,1.18,0,0,0,.59,1l.11.06.11,0,.05,0,.11,0H41A1.2,1.2,0,0,0,41.92,31Z"/><path class="cls-4" d="M39.83,24.19V26.9H28.45V25a1.51,1.51,0,0,1,.72-1.28,1.5,1.5,0,0,1,.78-.21h9.17A.71.71,0,0,1,39.83,24.19Z"/><path class="cls-4" d="M44.5,25V26.9H42.29V24.19a.71.71,0,0,1,.71-.71,1.73,1.73,0,0,1,.32,0A1.49,1.49,0,0,1,44.5,25Z"/><path class="cls-7" d="M43.32,23.51a1.73,1.73,0,0,0-.32,0,.71.71,0,0,0-.71.71V30.1A1.25,1.25,0,0,1,41,31.33h-.19l-.11,0-.05,0-.11,0-.11-.06a1.32,1.32,0,0,1-.59-1,.62.62,0,0,1,0-.13V24.19a.71.71,0,0,0-.71-.71H30a1.5,1.5,0,0,0-.78.21,2.32,2.32,0,0,1,1.58-3,2.33,2.33,0,0,1,1.39.09,2.48,2.48,0,0,1,4.75-.1,2.26,2.26,0,0,1,2.78.1,2.3,2.3,0,1,1,3.65,2.77Z"/></g><g id="Line"><path class="cls-8" d="M9.93,8.91V55.09a3.9,3.9,0,0,1-7.8,0V8.91a3.9,3.9,0,1,1,7.8,0Z"/><path class="cls-8" d="M23,16a22.82,22.82,0,0,0-4,5.37H9.93V16Z"/><path class="cls-8" d="M23,48h-13V42.65H19A22.82,22.82,0,0,0,23,48Z"/><path class="cls-8" d="M39.11,9.23A22.77,22.77,0,1,0,61.87,32,22.66,22.66,0,0,0,39.11,9.23Zm0,41.79-.82,0-.55,0h-.21L37,50.91l-.88-.12-.48-.08c-.19,0-.38-.08-.55-.12l-.3-.07c-.26-.05-.52-.12-.79-.2s-.64-.18-1-.29-.43-.14-.64-.23-.6-.23-.89-.36l-.11,0a8.86,8.86,0,0,1-.82-.4c-.3-.15-.59-.3-.87-.47s-.58-.33-.85-.51-.43-.28-.65-.44A1.27,1.27,0,0,1,28,47.4c-.24-.17-.46-.34-.68-.52l-.47-.38c-.2-.15-.38-.33-.57-.5a6.11,6.11,0,0,1-.58-.56,18.78,18.78,0,0,1-2.32-2.79c-.34-.52-.67-1-1-1.59a15.11,15.11,0,0,1-.81-1.67A17,17,0,0,1,21,37.66l-.12-.38c-.12-.41-.22-.82-.31-1.24s-.12-.61-.17-.93-.1-.62-.14-.93c0-.15,0-.3-.05-.45a.61.61,0,0,0,0-.14c0-.25,0-.5,0-.75s0-.56,0-.84c0-.58,0-1.16.07-1.73,0-.15,0-.3.05-.45,0-.32.08-.63.14-.93s.11-.62.17-.93.19-.83.31-1.24l.12-.38a18.7,18.7,0,0,1,2.4-5c.29-.43.59-.83.92-1.23l.47-.57,0,0c.17-.19.33-.38.5-.55s.36-.39.55-.57.62-.59,1-.86l.52-.43c.25-.2.51-.39.78-.58a8,8,0,0,1,.8-.54l.56-.35A13,13,0,0,1,30.6,15l.46-.23.37-.17c.13,0,.25-.11.38-.15a9.89,9.89,0,0,1,1.35-.51l.53-.17c.27-.08.55-.17.84-.23l.45-.1c.29-.07.59-.13.89-.18l.47-.07.67-.1.51-.05h.22l.54,0,.83,0a19,19,0,0,1,0,38Z"/><circle class="cls-8" cx="39.1" cy="32" r="19.02" transform="translate(-1.03 62.7) rotate(-76.72)"/><path class="cls-9" d="M49.76,29.41v9.73a3.92,3.92,0,0,1-3.92,3.91h-1.6a3.35,3.35,0,0,0,.26-1.27v-.45h1.34A2.19,2.19,0,0,0,48,39.14V29.41a2.19,2.19,0,0,0-2.19-2.19H44.5V25.49h1.34A3.93,3.93,0,0,1,49.76,29.41Z"/><path class="cls-9" d="M44.5,26.9V41.78a3.35,3.35,0,0,1-.26,1.27,3.31,3.31,0,0,1-3.05,2H31.75a3.29,3.29,0,0,1-3.3-3.29V26.9H39.83V30a.62.62,0,0,0,0,.13,1.18,1.18,0,0,0,.59,1l.11.06.11,0,.05,0,.11,0H41a1.25,1.25,0,0,0,1.29-1.23V26.9Z"/><rect class="cls-9" x="31.02" y="29.39" width="2.43" height="12.36" rx="1.17"/><rect class="cls-9" x="35.26" y="29.39" width="2.43" height="12.36" rx="1.17"/><path class="cls-9" d="M41.92,31v9.57a1.22,1.22,0,0,1-2.43,0V30.61a1.26,1.26,0,0,1,.34-.85V30a.62.62,0,0,0,0,.13,1.18,1.18,0,0,0,.59,1l.11.06.11,0,.05,0,.11,0H41A1.2,1.2,0,0,0,41.92,31Z"/><path class="cls-9" d="M39.83,24.19V26.9H28.45V25a1.51,1.51,0,0,1,.72-1.28,1.5,1.5,0,0,1,.78-.21h9.17A.71.71,0,0,1,39.83,24.19Z"/><path class="cls-9" d="M44.5,25V26.9H42.29V24.19a.71.71,0,0,1,.71-.71,1.73,1.73,0,0,1,.32,0A1.49,1.49,0,0,1,44.5,25Z"/><path class="cls-9" d="M43.32,23.51a1.73,1.73,0,0,0-.32,0,.71.71,0,0,0-.71.71V30.1A1.25,1.25,0,0,1,41,31.33h-.19l-.11,0-.05,0-.11,0-.11-.06a1.32,1.32,0,0,1-.59-1,.62.62,0,0,1,0-.13V24.19a.71.71,0,0,0-.71-.71H30a1.5,1.5,0,0,0-.78.21,2.32,2.32,0,0,1,1.58-3,2.33,2.33,0,0,1,1.39.09,2.48,2.48,0,0,1,4.75-.1,2.26,2.26,0,0,1,2.78.1,2.3,2.3,0,1,1,3.65,2.77Z"/></g><g id="Shadow" class="cls-10"><path d="M52.31,45.65a19,19,0,0,0,0-27.31,22.73,22.73,0,0,1,0,27.31Z"/><path d="M39.11,9.23a23.17,23.17,0,0,0-2.51.14,22.75,22.75,0,0,1,15.7,9,18.94,18.94,0,0,1,0,27.34,22.75,22.75,0,0,1-15.7,9,23.17,23.17,0,0,0,2.51.14,22.77,22.77,0,0,0,0-45.54Z"/></g><g id="Highligth" class="cls-11"><path class="cls-12" d="M41.6,54.63A22.7,22.7,0,0,1,28,48H23A22.66,22.66,0,0,0,41.6,54.63Z"/><path class="cls-12" d="M28,16H23A22.57,22.57,0,0,0,17,26.6V37.4a22.58,22.58,0,0,0,2,5.25L19.75,44a12.56,12.56,0,0,0,1,1.44A12.18,12.18,0,0,0,23.54,48H28a23.2,23.2,0,0,1-6.6-16A23.2,23.2,0,0,1,28,16Z"/><path class="cls-12" d="M40.78,9.5l.34-.17c-.66-.06-1.33-.1-2-.1A22.66,22.66,0,0,0,23,16h5A22.64,22.64,0,0,1,40.78,9.5Z"/><path class="cls-12" d="M6.29,5,6,5a3.9,3.9,0,0,0-3.9,3.9V55.09A3.9,3.9,0,0,0,6,59l.26,0Z"/></g></g></g></svg>